<?xml version="1.0" encoding="UTF-8"?>
<svg id="Layer_2" data-name="Layer 2" xmlns="http://www.w3.org/2000/svg" viewBox="0 0 271.88 81.9">
  <defs>
    <style>
      .cls-1 {
        fill: #e8262c;
      }

      .cls-2 {
        fill: #fff;
      }

      .cls-3 {
        fill: #201d1e;
      }

      .cls-4 {
        fill: #211e1f;
      }
    </style>
  </defs>
  <g id="Layer_1-2" data-name="Layer 1">
    <g>
      <polygon class="cls-3" points="56.48 81.62 45.46 80.74 45.71 71.82 42.65 70.29 35.49 78.35 23.91 69.47 26.43 65.85 22.92 62.16 12.22 63.56 8.35 54 17.43 49.65 17 46.5 6.13 43.65 6.13 34.91 17.02 35.41 17.21 32.36 9.28 24 16.58 13.68 24.48 21.58 27.41 19.15 20.85 10.06 33.87 2.54 41.63 12.82 46.36 11.42 43.31 0 59.65 0 59.65 12.33 62.59 12.33 72.03 4.53 80.72 12.64 79.16 14.31 71.94 7.57 63.41 14.62 57.37 14.62 57.37 2.29 46.29 2.29 49.15 12.97 40.76 15.47 33.27 5.53 24.19 10.78 30.51 19.54 24.34 24.67 16.88 17.21 12.23 23.79 19.55 31.51 19.16 37.8 8.41 37.31 8.41 41.89 19.05 44.68 19.92 50.99 11.27 55.14 13.67 61.07 23.77 59.75 29.37 65.63 27.03 68.98 35.19 75.24 42.1 67.46 48.03 70.42 47.8 78.64 54.51 79.17 55.98 68.45 62.97 68.77 65.78 75.94 75.75 73.69 75.75 61.17 78.03 61.17 78.03 75.52 64.37 78.6 61.38 70.99 57.96 70.83 56.48 81.62"/>
      <polygon class="cls-3" points="40.1 14.47 37.05 4.22 45.84 3.99 45.9 6.27 40.09 6.42 42.29 13.82 40.1 14.47"/>
      <rect class="cls-3" x="15.79" y="11.79" width="7.67" height="2.29" transform="translate(-3.68 16.02) rotate(-40.93)"/>
      <polygon class="cls-3" points="11.73 37.12 3.45 28.02 9.98 17.87 13.49 19.81 12.38 21.81 10.74 20.9 6.32 27.78 13.42 35.58 11.73 37.12"/>
      <polygon class="cls-3" points="13.79 53.21 11.51 53.21 11.51 50.29 0 47.3 0 38.77 7.27 38.77 7.27 41.06 2.29 41.06 2.29 45.53 13.79 48.53 13.79 53.21"/>
      <polygon class="cls-3" points="29.63 81.9 17.54 74.18 20.82 69.79 17.23 66.38 6.64 68.68 1.37 58.14 9.93 54.81 10.75 56.95 4.54 59.36 7.89 66.07 17.92 63.88 23.86 69.53 20.84 73.58 29.16 78.89 32.66 74.68 34.42 76.14 29.63 81.9"/>
      <path class="cls-3" d="m34.77,58.2c-5.81-1.32-9.56-4.04-11.12-8.07-3.22-8.31,4.15-19.03,4.47-19.48l1.88,1.31c-.07.1-6.99,10.18-4.21,17.35,1.27,3.28,4.46,5.52,9.49,6.66l-.51,2.23Z"/>
      <g>
        <path class="cls-1" d="m92.9,37.06h7.07l9.22,11.69v-11.69h7.13v21.13h-7.13l-9.17-11.6v11.6h-7.12v-21.13Z"/>
        <path class="cls-1" d="m119.63,37.06h23v5.22h-7.72v15.91h-7.57v-15.91h-7.72v-5.22Z"/>
        <path class="cls-1" d="m146.05,37.06h20.28v4.51h-12.7v3.36h11.78v4.31h-11.78v4.17h13.06v4.79h-20.65v-21.13Z"/>
        <path class="cls-1" d="m183.08,50.53v-4.4h11.69v9.01c-2.24,1.32-4.22,2.21-5.94,2.69-1.72.48-3.76.71-6.12.71-2.91,0-5.28-.43-7.11-1.28-1.83-.86-3.25-2.13-4.26-3.82-1.01-1.69-1.51-3.63-1.51-5.82,0-2.31.55-4.31,1.65-6.02,1.1-1.71,2.72-3,4.84-3.88,1.66-.68,3.89-1.02,6.7-1.02s4.73.21,6.07.63c1.34.42,2.46,1.08,3.34,1.97.89.89,1.55,2.02,2,3.38l-7.3,1.12c-.3-.8-.81-1.41-1.53-1.83-.72-.42-1.63-.63-2.75-.63-1.66,0-2.98.5-3.97,1.49s-1.48,2.57-1.48,4.72c0,2.29.5,3.92,1.49,4.9,1,.98,2.39,1.47,4.17,1.47.85,0,1.65-.11,2.42-.32.77-.21,1.65-.57,2.64-1.08v-1.99h-5.06Z"/>
        <path class="cls-1" d="m199.37,58.19v-21.13h12.61c2.34,0,4.13.17,5.36.52,1.24.35,2.23.99,2.99,1.92.76.94,1.14,2.08,1.14,3.42,0,1.17-.29,2.18-.87,3.03-.58.85-1.38,1.54-2.39,2.07-.65.34-1.53.62-2.66.84.9.26,1.56.52,1.97.78.28.17.68.54,1.21,1.11.53.57.88,1,1.06,1.31l3.67,6.12h-8.55l-4.05-6.46c-.51-.84-.97-1.38-1.37-1.63-.55-.33-1.16-.49-1.86-.49h-.67v8.58h-7.6Zm7.6-12.57h3.19c.34,0,1.01-.1,2-.29.5-.09.91-.31,1.23-.66.32-.36.48-.76.48-1.23,0-.68-.25-1.21-.75-1.57-.5-.37-1.44-.55-2.82-.55h-3.32v4.3Z"/>
        <path class="cls-1" d="m240.94,54.7h-8.59l-1.19,3.49h-7.73l9.21-21.13h8.26l9.2,21.13h-7.92l-1.23-3.49Zm-1.57-4.57l-2.7-7.6-2.68,7.6h5.38Z"/>
        <path class="cls-1" d="m252.5,37.06h7.57v15.93h11.81v5.2h-19.38v-21.13Z"/>
      </g>
      <g>
        <path class="cls-4" d="m146.67,12.72h-4.41l-1.33,2.21h-2.35l6.29-10.02h2.54l1.8,10.02h-2.17l-.37-2.21Zm-.28-1.67l-.64-4.03-2.68,4.03h3.33Z"/>
        <path class="cls-4" d="m158.66,11.33l2.31.31c-.45,1.12-1.12,1.98-2.02,2.58-.9.59-1.95.89-3.16.89-1.36,0-2.42-.37-3.19-1.11-.77-.74-1.15-1.81-1.15-3.21,0-1.14.26-2.18.77-3.13.51-.95,1.22-1.67,2.13-2.17s1.9-.75,2.97-.75c1.2,0,2.18.29,2.92.87s1.18,1.37,1.31,2.37l-2.19.19c-.12-.58-.36-1-.7-1.27-.35-.26-.81-.39-1.38-.39-.63,0-1.22.17-1.77.52-.55.35-.99.89-1.32,1.62-.33.74-.49,1.47-.49,2.2,0,.8.21,1.42.64,1.86.43.44.96.66,1.6.66.59,0,1.13-.17,1.63-.52.49-.35.86-.86,1.1-1.54Z"/>
        <path class="cls-4" d="m169.1,12.72h-4.41l-1.33,2.21h-2.35l6.29-10.02h2.54l1.8,10.02h-2.17l-.37-2.21Zm-.28-1.67l-.64-4.03-2.68,4.03h3.33Z"/>
        <path class="cls-4" d="m173.08,14.94l2.33-10.02h3c.83,0,1.37.01,1.6.03.46.04.87.13,1.23.25.36.13.69.31.99.54.3.23.55.51.77.83s.38.7.5,1.12c.12.42.17.88.17,1.38,0,1.08-.23,2.04-.69,2.87-.46.84-1.03,1.5-1.73,1.99-.53.38-1.22.67-2.06.85-.48.1-1.21.15-2.19.15h-3.92Zm2.66-1.61h1.16c.84,0,1.45-.05,1.82-.14.38-.09.72-.27,1.04-.52.45-.37.83-.86,1.14-1.48.31-.62.46-1.34.46-2.17,0-.71-.13-1.24-.38-1.6-.26-.36-.57-.6-.94-.71-.26-.08-.73-.12-1.4-.12h-1.33l-1.56,6.75Z"/>
        <path class="cls-4" d="m184.26,14.94l2.32-10.02h8.24l-.39,1.67h-5.95l-.53,2.28h5.76l-.39,1.67h-5.76l-.7,2.72h6.47l-.39,1.67h-8.68Z"/>
        <path class="cls-4" d="m201.01,14.94h-2.17l-.4-8.37-1.77,8.37h-2.06l2.32-10.02h3.26l.34,7.02,3.79-7.02h3.3l-2.33,10.02h-2.09l2.19-8.31-4.39,8.31Z"/>
        <path class="cls-4" d="m207.45,14.94l2.33-10.02h2.28l-2.32,10.02h-2.29Z"/>
        <path class="cls-4" d="m219.15,12.72h-4.41l-1.33,2.21h-2.35l6.29-10.02h2.54l1.8,10.02h-2.17l-.37-2.21Zm-.28-1.67l-.64-4.03-2.68,4.03h3.33Z"/>
      </g>
      <g>
        <path class="cls-4" d="m107.43,30.28h-2.29l2.33-10.02h4.52c.8,0,1.44.09,1.91.26s.84.45,1.11.85c.27.39.41.86.41,1.41,0,.51-.11,1-.33,1.48s-.48.86-.8,1.15c-.32.29-.66.5-1.02.65s-.85.26-1.47.34c-.36.05-1.03.07-2.02.07h-1.46l-.89,3.82Zm1.27-5.48h.71c1.21,0,2.01-.07,2.42-.2s.72-.36.96-.66c.23-.3.35-.63.35-.99,0-.24-.06-.44-.18-.59s-.29-.27-.5-.34c-.22-.07-.69-.11-1.44-.11h-1.64l-.67,2.89Z"/>
        <path class="cls-4" d="m117.84,30.28h-2.29l2.33-10.02h4.94c.85,0,1.51.08,1.98.24.47.16.85.45,1.14.86.29.42.44.93.44,1.52,0,.85-.28,1.55-.85,2.11-.57.55-1.42.9-2.57,1.03.29.24.57.55.83.94.51.78,1.08,1.89,1.71,3.32h-2.46c-.2-.57-.58-1.45-1.16-2.64-.31-.65-.65-1.08-1-1.3-.22-.13-.6-.2-1.14-.2h-.93l-.96,4.15Zm1.31-5.65h1.21c1.23,0,2.04-.07,2.45-.2.4-.13.72-.34.94-.62.23-.28.34-.58.34-.89,0-.36-.16-.64-.49-.82-.2-.11-.64-.16-1.31-.16h-2.52l-.62,2.69Z"/>
        <path class="cls-4" d="m126.72,30.28l2.32-10.02h8.24l-.39,1.67h-5.95l-.53,2.28h5.76l-.39,1.67h-5.76l-.7,2.72h6.47l-.39,1.67h-8.68Z"/>
        <path class="cls-4" d="m139.41,20.26h2.28l-1.26,5.44-.31,1.34c-.02.11-.03.22-.03.32,0,.4.16.72.48.98.32.26.79.39,1.4.39.55,0,1.01-.09,1.37-.28.36-.19.64-.46.83-.83.2-.37.4-1,.6-1.88l1.27-5.47h2.28l-1.27,5.48c-.27,1.15-.58,2.03-.93,2.64-.35.61-.88,1.11-1.59,1.49-.71.38-1.6.57-2.68.57-1.29,0-2.29-.29-2.97-.86-.69-.57-1.03-1.31-1.03-2.2,0-.19.02-.39.05-.61.02-.15.11-.56.27-1.24l1.23-5.27Z"/>
        <path class="cls-4" d="m157.19,30.28h-2.13l-3-6.73-1.56,6.73h-2.13l2.32-10.02h2.14l3.01,6.7,1.55-6.7h2.12l-2.32,10.02Z"/>
        <path class="cls-4" d="m159.42,30.28l2.33-10.02h2.28l-2.32,10.02h-2.29Z"/>
        <path class="cls-4" d="m169.39,30.28h-2.44l-1.99-10.02h2.28l1.41,7.58,4.6-7.58h2.27l-6.13,10.02Z"/>
        <path class="cls-4" d="m174.19,30.28l2.32-10.02h8.24l-.39,1.67h-5.95l-.53,2.28h5.76l-.39,1.67h-5.76l-.7,2.72h6.47l-.39,1.67h-8.68Z"/>
        <path class="cls-4" d="m186.88,30.28h-2.29l2.33-10.02h4.94c.85,0,1.51.08,1.98.24.47.16.85.45,1.14.86.29.42.44.93.44,1.52,0,.85-.28,1.55-.85,2.11-.57.55-1.42.9-2.57,1.03.29.24.57.55.83.94.51.78,1.08,1.89,1.71,3.32h-2.46c-.2-.57-.58-1.45-1.16-2.64-.31-.65-.65-1.08-1-1.3-.22-.13-.6-.2-1.14-.2h-.93l-.96,4.15Zm1.31-5.65h1.21c1.23,0,2.04-.07,2.45-.2.4-.13.72-.34.94-.62.23-.28.34-.58.34-.89,0-.36-.16-.64-.49-.82-.2-.11-.64-.16-1.31-.16h-2.52l-.62,2.69Z"/>
        <path class="cls-4" d="m196.11,27.03l2.18-.1c.03.62.15,1.05.36,1.26.33.36.95.53,1.85.53.75,0,1.29-.12,1.62-.36.33-.24.5-.53.5-.87,0-.3-.14-.55-.41-.75-.19-.15-.72-.39-1.58-.73-.86-.34-1.49-.62-1.89-.84-.4-.23-.71-.52-.94-.88-.23-.36-.34-.78-.34-1.26,0-.84.34-1.54,1.02-2.1.68-.56,1.66-.83,2.94-.83s2.31.28,3.03.83c.72.55,1.11,1.28,1.18,2.2l-2.19.09c-.06-.48-.25-.84-.58-1.1-.33-.25-.81-.38-1.46-.38s-1.08.1-1.35.3-.41.45-.41.76c0,.29.12.52.37.71.25.19.8.45,1.65.79,1.28.5,2.09.9,2.44,1.21.52.46.78,1.04.78,1.76,0,.88-.39,1.64-1.16,2.27-.78.63-1.86.94-3.24.94-.96,0-1.78-.14-2.48-.43-.7-.29-1.19-.69-1.48-1.21s-.42-1.11-.4-1.78Z"/>
        <path class="cls-4" d="m206.02,30.28l2.33-10.02h2.28l-2.32,10.02h-2.29Z"/>
        <path class="cls-4" d="m215.28,30.28h-2.29l1.94-8.34h-3.26l.39-1.67h8.76l-.39,1.67h-3.22l-1.93,8.34Z"/>
        <path class="cls-4" d="m226.05,28.06h-4.41l-1.33,2.21h-2.35l6.29-10.02h2.54l1.8,10.02h-2.17l-.37-2.21Zm-.28-1.67l-.64-4.03-2.68,4.03h3.33Z"/>
        <path class="cls-4" d="m232.32,30.28h-2.29l2.33-10.02h4.94c.85,0,1.51.08,1.98.24.47.16.85.45,1.14.86.29.42.44.93.44,1.52,0,.85-.28,1.55-.85,2.11-.57.55-1.42.9-2.57,1.03.29.24.57.55.83.94.51.78,1.08,1.89,1.71,3.32h-2.46c-.2-.57-.58-1.45-1.16-2.64-.31-.65-.65-1.08-1-1.3-.22-.13-.6-.2-1.14-.2h-.93l-.96,4.15Zm1.31-5.65h1.21c1.23,0,2.04-.07,2.45-.2.4-.13.72-.34.94-.62.23-.28.34-.58.34-.89,0-.36-.16-.64-.49-.82-.2-.11-.64-.16-1.31-.16h-2.52l-.62,2.69Z"/>
        <path class="cls-4" d="m241.1,30.28l2.33-10.02h2.28l-2.32,10.02h-2.29Z"/>
        <path class="cls-4" d="m252.8,28.06h-4.41l-1.33,2.21h-2.35l6.29-10.02h2.54l1.8,10.02h-2.17l-.37-2.21Zm-.28-1.67l-.64-4.03-2.68,4.03h3.33Z"/>
      </g>
      <g>
        <path class="cls-4" d="m138.4,74.24l.88-10.02h2.89l-.34,3.94h5.65l.34-3.94h2.89l-.88,10.02h-2.89l.38-4.38h-5.65l-.38,4.38h-2.89Z"/>
        <path class="cls-4" d="m153.67,64.23h2.89l-.47,5.42c-.08.86-.09,1.42-.04,1.67.09.41.35.74.79.99.44.25,1.07.37,1.87.37s1.45-.12,1.88-.35c.44-.23.71-.52.83-.86.11-.34.21-.91.28-1.7l.48-5.54h2.89l-.46,5.26c-.11,1.2-.26,2.05-.46,2.55-.2.5-.52.92-.97,1.26-.45.34-1.03.61-1.75.82-.72.2-1.65.31-2.78.31-1.36,0-2.39-.11-3.08-.33-.69-.22-1.22-.51-1.6-.86-.38-.35-.61-.72-.71-1.11-.14-.57-.16-1.42-.06-2.54l.47-5.34Z"/>
        <path class="cls-4" d="m180.12,74.24h-3.14l-1.05-2.28h-5.71l-1.38,2.28h-3.06l6.44-10.02h3.05l4.85,10.02Zm-4.97-3.96l-1.64-3.72-2.26,3.72h3.9Z"/>
        <path class="cls-4" d="m181.66,74.24l.88-10.02h6.07c1.53,0,2.63.09,3.3.27.68.18,1.2.5,1.58.96.38.46.54.99.49,1.58-.07.75-.44,1.37-1.11,1.86-.67.49-1.64.8-2.91.93.6.25,1.09.53,1.47.84.38.31.88.85,1.5,1.63l1.57,1.95h-3.45l-1.9-2.18c-.67-.78-1.14-1.27-1.39-1.47-.25-.2-.53-.34-.83-.42-.3-.08-.78-.11-1.44-.11h-.58l-.37,4.18h-2.89Zm3.39-5.78h2.13c1.39,0,2.25-.04,2.6-.12.35-.08.63-.22.85-.42.21-.2.33-.45.36-.75.03-.34-.07-.61-.31-.82-.24-.21-.59-.34-1.05-.39-.23-.02-.93-.03-2.1-.03h-2.25l-.22,2.54Z"/>
        <path class="cls-4" d="m208.95,74.24h-3.14l-1.05-2.28h-5.71l-1.38,2.28h-3.06l6.44-10.02h3.05l4.85,10.02Zm-4.97-3.96l-1.64-3.72-2.26,3.72h3.9Z"/>
        <path class="cls-4" d="m209.25,74.24l.16-1.82,8.07-6.5h-6.66l.15-1.69h10.46l-.14,1.57-8.42,6.76h8.13l-.15,1.69h-11.61Z"/>
      </g>
      <g>
        <polygon class="cls-1" points="44.8 13.47 39.18 23.6 39.18 31.34 47.87 31.34 47.87 51.58 44.8 51.58 39.18 55.58 39.18 62.31 73.76 62.31 83.33 58.75 83.33 51.58 69.62 51.58 69.62 29.33 79.94 20.65 79.94 13.47 44.8 13.47"/>
        <path class="cls-1" d="m74.03,63.84h-36.37v-9.05l6.65-4.74h2.04v-17.18h-8.69v-9.66l6.24-11.26h37.57v9.41l-10.32,8.69v20.01h13.71v9.75l-10.82,4.03Zm-33.33-3.05h32.78l8.33-3.1v-4.59h-13.71v-24.47l10.32-8.69v-4.94h-32.72l-4.99,9v5.82h8.69v23.28h-4.11l-4.58,3.26v4.43Z"/>
      </g>
      <g>
        <polygon class="cls-2" points="83.33 51.58 83.33 58.75 44.8 58.75 44.8 51.58 55.79 51.58 55.79 20.65 44.8 20.65 44.8 13.47 79.94 13.47 79.94 20.65 69.62 20.65 69.62 51.58 83.33 51.58"/>
        <path class="cls-1" d="m84.86,60.27h-41.58v-10.22h10.99v-27.88h-10.99v-10.22h38.19v10.22h-10.32v27.88h13.71v10.22Zm-38.53-3.05h35.49v-4.12h-13.71V19.12h10.32v-4.12h-32.1v4.12h10.99v33.98h-10.99v4.12Z"/>
      </g>
    </g>
  </g>
</svg>