<svg width="135" height="80" viewBox="0 0 135 80" fill="none" xmlns="http://www.w3.org/2000/svg">
<path d="M7.05394 9.99483L7.79794 20.7708H3.33394L4.07794 9.99483H7.05394ZM5.56594 3.97083C6.25394 3.97083 6.80594 4.18683 7.22194 4.61883C7.65394 5.05083 7.86994 5.57083 7.86994 6.17883C7.86994 6.77083 7.65394 7.27483 7.22194 7.69083C6.80594 8.10683 6.25394 8.31483 5.56594 8.31483C4.89394 8.31483 4.34194 8.10683 3.90994 7.69083C3.47794 7.27483 3.26194 6.77083 3.26194 6.17883C3.26194 5.57083 3.47794 5.05083 3.90994 4.61883C4.34194 4.18683 4.89394 3.97083 5.56594 3.97083ZM11.0154 17.0748V0.274828H14.9034V13.9068H23.3274V17.0748H11.0154ZM31.3095 17.2668C29.9335 17.2668 28.7095 16.9788 27.6375 16.4028C26.5815 15.8268 25.7415 15.0428 25.1175 14.0508C24.5095 13.0428 24.2055 11.8988 24.2055 10.6188C24.2055 9.32283 24.5095 8.17883 25.1175 7.18683C25.7415 6.17883 26.5815 5.39483 27.6375 4.83483C28.7095 4.25883 29.9335 3.97083 31.3095 3.97083C32.6695 3.97083 33.8855 4.25883 34.9575 4.83483C36.0295 5.39483 36.8695 6.17083 37.4775 7.16283C38.0855 8.15483 38.3895 9.30683 38.3895 10.6188C38.3895 11.8988 38.0855 13.0428 37.4775 14.0508C36.8695 15.0428 36.0295 15.8268 34.9575 16.4028C33.8855 16.9788 32.6695 17.2668 31.3095 17.2668ZM31.3095 14.1948C31.9335 14.1948 32.4935 14.0508 32.9895 13.7628C33.4855 13.4748 33.8775 13.0668 34.1655 12.5388C34.4535 11.9948 34.5975 11.3548 34.5975 10.6188C34.5975 9.86683 34.4535 9.22683 34.1655 8.69883C33.8775 8.17083 33.4855 7.76283 32.9895 7.47483C32.4935 7.18683 31.9335 7.04283 31.3095 7.04283C30.6855 7.04283 30.1255 7.18683 29.6295 7.47483C29.1335 7.76283 28.7335 8.17083 28.4295 8.69883C28.1415 9.22683 27.9975 9.86683 27.9975 10.6188C27.9975 11.3548 28.1415 11.9948 28.4295 12.5388C28.7335 13.0668 29.1335 13.4748 29.6295 13.7628C30.1255 14.0508 30.6855 14.1948 31.3095 14.1948ZM46.9641 21.9228C45.7481 21.9228 44.5721 21.7708 43.4361 21.4668C42.3161 21.1788 41.3801 20.7388 40.6281 20.1468L42.1161 17.4588C42.6601 17.9068 43.3481 18.2588 44.1801 18.5148C45.0281 18.7868 45.8601 18.9228 46.6761 18.9228C48.0041 18.9228 48.9641 18.6268 49.5561 18.0348C50.1641 17.4428 50.4681 16.5628 50.4681 15.3948V13.4508L50.7081 10.2108L50.6601 6.94683V4.16283H54.2121V14.9148C54.2121 17.3148 53.5881 19.0828 52.3401 20.2188C51.0921 21.3548 49.3001 21.9228 46.9641 21.9228ZM46.3881 16.4508C45.1881 16.4508 44.1001 16.1948 43.1241 15.6828C42.1641 15.1548 41.3881 14.4268 40.7961 13.4988C40.2201 12.5548 39.9321 11.4588 39.9321 10.2108C39.9321 8.94683 40.2201 7.85083 40.7961 6.92283C41.3881 5.97883 42.1641 5.25083 43.1241 4.73883C44.1001 4.22683 45.1881 3.97083 46.3881 3.97083C47.4761 3.97083 48.4361 4.19483 49.2681 4.64283C50.1001 5.07483 50.7481 5.75483 51.2121 6.68283C51.6761 7.59483 51.9081 8.77083 51.9081 10.2108C51.9081 11.6348 51.6761 12.8108 51.2121 13.7388C50.7481 14.6508 50.1001 15.3308 49.2681 15.7788C48.4361 16.2268 47.4761 16.4508 46.3881 16.4508ZM47.1321 13.3788C47.7881 13.3788 48.3721 13.2508 48.8841 12.9948C49.3961 12.7228 49.7961 12.3468 50.0841 11.8668C50.3721 11.3868 50.5161 10.8348 50.5161 10.2108C50.5161 9.57083 50.3721 9.01883 50.0841 8.55483C49.7961 8.07483 49.3961 7.70683 48.8841 7.45083C48.3721 7.17883 47.7881 7.04283 47.1321 7.04283C46.4761 7.04283 45.8921 7.17883 45.3801 7.45083C44.8681 7.70683 44.4601 8.07483 44.1561 8.55483C43.8681 9.01883 43.7241 9.57083 43.7241 10.2108C43.7241 10.8348 43.8681 11.3868 44.1561 11.8668C44.4601 12.3468 44.8681 12.7228 45.3801 12.9948C45.8921 13.2508 46.4761 13.3788 47.1321 13.3788ZM57.6968 17.0748V4.16283H61.2728V7.81083L60.7688 6.75483C61.1528 5.84283 61.7688 5.15483 62.6168 4.69083C63.4648 4.21083 64.4968 3.97083 65.7128 3.97083V7.42683C65.5528 7.41083 65.4088 7.40283 65.2808 7.40283C65.1528 7.38683 65.0168 7.37883 64.8728 7.37883C63.8488 7.37883 63.0168 7.67483 62.3768 8.26683C61.7528 8.84283 61.4408 9.74683 61.4408 10.9788V17.0748H57.6968ZM74.2532 17.2668C72.7812 17.2668 71.4852 16.9788 70.3652 16.4028C69.2612 15.8268 68.4052 15.0428 67.7972 14.0508C67.1892 13.0428 66.8852 11.8988 66.8852 10.6188C66.8852 9.32283 67.1812 8.17883 67.7732 7.18683C68.3812 6.17883 69.2052 5.39483 70.2452 4.83483C71.2852 4.25883 72.4612 3.97083 73.7732 3.97083C75.0372 3.97083 76.1732 4.24283 77.1812 4.78683C78.2052 5.31483 79.0132 6.08283 79.6052 7.09083C80.1972 8.08283 80.4932 9.27483 80.4932 10.6668C80.4932 10.8108 80.4852 10.9788 80.4692 11.1708C80.4532 11.3468 80.4372 11.5148 80.4212 11.6748H69.9332V9.49083H78.4532L77.0132 10.1388C77.0132 9.46683 76.8772 8.88283 76.6052 8.38683C76.3332 7.89083 75.9572 7.50683 75.4772 7.23483C74.9972 6.94683 74.4372 6.80283 73.7972 6.80283C73.1572 6.80283 72.5892 6.94683 72.0932 7.23483C71.6132 7.50683 71.2372 7.89883 70.9652 8.41083C70.6932 8.90683 70.5572 9.49883 70.5572 10.1868V10.7628C70.5572 11.4668 70.7092 12.0908 71.0132 12.6348C71.3332 13.1628 71.7732 13.5708 72.3332 13.8588C72.9092 14.1308 73.5812 14.2668 74.3492 14.2668C75.0372 14.2668 75.6372 14.1628 76.1492 13.9548C76.6772 13.7468 77.1572 13.4348 77.5892 13.0188L79.5812 15.1788C78.9892 15.8508 78.2452 16.3708 77.3492 16.7388C76.4532 17.0908 75.4212 17.2668 74.2532 17.2668ZM99.5218 3.97083C100.546 3.97083 101.45 4.17883 102.234 4.59483C103.034 4.99483 103.658 5.61883 104.106 6.46683C104.57 7.29883 104.802 8.37083 104.802 9.68283V17.0748H101.058V10.2588C101.058 9.21883 100.842 8.45083 100.41 7.95483C99.9778 7.45883 99.3698 7.21083 98.5858 7.21083C98.0418 7.21083 97.5538 7.33883 97.1218 7.59483C96.6898 7.83483 96.3538 8.20283 96.1138 8.69883C95.8738 9.19483 95.7538 9.82683 95.7538 10.5948V17.0748H92.0098V10.2588C92.0098 9.21883 91.7938 8.45083 91.3618 7.95483C90.9458 7.45883 90.3458 7.21083 89.5618 7.21083C89.0178 7.21083 88.5298 7.33883 88.0978 7.59483C87.6658 7.83483 87.3298 8.20283 87.0898 8.69883C86.8498 9.19483 86.7298 9.82683 86.7298 10.5948V17.0748H82.9858V4.16283H86.5618V7.69083L85.8898 6.65883C86.3378 5.77883 86.9698 5.11483 87.7858 4.66683C88.6178 4.20283 89.5618 3.97083 90.6178 3.97083C91.8018 3.97083 92.8338 4.27483 93.7138 4.88283C94.6098 5.47483 95.2018 6.38683 95.4898 7.61883L94.1698 7.25883C94.6018 6.25083 95.2898 5.45083 96.2338 4.85883C97.1938 4.26683 98.2898 3.97083 99.5218 3.97083ZM114.395 17.2668C113.019 17.2668 111.795 16.9788 110.723 16.4028C109.667 15.8268 108.827 15.0428 108.203 14.0508C107.595 13.0428 107.291 11.8988 107.291 10.6188C107.291 9.32283 107.595 8.17883 108.203 7.18683C108.827 6.17883 109.667 5.39483 110.723 4.83483C111.795 4.25883 113.019 3.97083 114.395 3.97083C115.755 3.97083 116.971 4.25883 118.043 4.83483C119.115 5.39483 119.955 6.17083 120.563 7.16283C121.171 8.15483 121.475 9.30683 121.475 10.6188C121.475 11.8988 121.171 13.0428 120.563 14.0508C119.955 15.0428 119.115 15.8268 118.043 16.4028C116.971 16.9788 115.755 17.2668 114.395 17.2668ZM114.395 14.1948C115.019 14.1948 115.579 14.0508 116.075 13.7628C116.571 13.4748 116.963 13.0668 117.251 12.5388C117.539 11.9948 117.683 11.3548 117.683 10.6188C117.683 9.86683 117.539 9.22683 117.251 8.69883C116.963 8.17083 116.571 7.76283 116.075 7.47483C115.579 7.18683 115.019 7.04283 114.395 7.04283C113.771 7.04283 113.211 7.18683 112.715 7.47483C112.219 7.76283 111.819 8.17083 111.515 8.69883C111.227 9.22683 111.083 9.86683 111.083 10.6188C111.083 11.3548 111.227 11.9948 111.515 12.5388C111.819 13.0668 112.219 13.4748 112.715 13.7628C113.211 14.0508 113.771 14.1948 114.395 14.1948ZM128.322 17.2668C127.218 17.2668 126.154 17.1388 125.13 16.8828C124.122 16.6108 123.322 16.2748 122.73 15.8748L123.978 13.1868C124.57 13.5548 125.266 13.8588 126.066 14.0988C126.882 14.3228 127.682 14.4348 128.466 14.4348C129.33 14.4348 129.938 14.3308 130.29 14.1228C130.658 13.9148 130.842 13.6268 130.842 13.2588C130.842 12.9548 130.698 12.7308 130.41 12.5868C130.138 12.4268 129.77 12.3068 129.306 12.2268C128.842 12.1468 128.33 12.0668 127.77 11.9868C127.226 11.9068 126.674 11.8028 126.114 11.6748C125.554 11.5308 125.042 11.3228 124.578 11.0508C124.114 10.7788 123.738 10.4108 123.45 9.94683C123.178 9.48283 123.042 8.88283 123.042 8.14683C123.042 7.33083 123.274 6.61083 123.738 5.98683C124.218 5.36283 124.906 4.87483 125.802 4.52283C126.698 4.15483 127.77 3.97083 129.018 3.97083C129.898 3.97083 130.794 4.06683 131.706 4.25883C132.618 4.45083 133.378 4.73083 133.986 5.09883L132.738 7.76283C132.114 7.39483 131.482 7.14683 130.842 7.01883C130.218 6.87483 129.61 6.80283 129.018 6.80283C128.186 6.80283 127.578 6.91483 127.194 7.13883C126.81 7.36283 126.618 7.65083 126.618 8.00283C126.618 8.32283 126.754 8.56283 127.026 8.72283C127.314 8.88283 127.69 9.01083 128.154 9.10683C128.618 9.20283 129.122 9.29083 129.666 9.37083C130.226 9.43483 130.786 9.53883 131.346 9.68283C131.906 9.82683 132.41 10.0348 132.858 10.3068C133.322 10.5628 133.698 10.9228 133.986 11.3868C134.274 11.8348 134.418 12.4268 134.418 13.1628C134.418 13.9628 134.178 14.6748 133.698 15.2988C133.218 15.9068 132.522 16.3868 131.61 16.7388C130.714 17.0908 129.618 17.2668 128.322 17.2668ZM6.89081 75.2668C5.37081 75.2668 4.18681 74.8828 3.33881 74.1148C2.49081 73.3308 2.06681 72.1708 2.06681 70.6348V59.3068H5.81081V70.5868C5.81081 71.1308 5.95481 71.5548 6.24281 71.8588C6.53081 72.1468 6.92281 72.2908 7.41881 72.2908C8.01081 72.2908 8.51481 72.1308 8.93081 71.8108L9.93881 74.4508C9.55481 74.7228 9.09081 74.9308 8.54681 75.0748C8.01881 75.2028 7.46681 75.2668 6.89081 75.2668ZM0.0748125 65.3308V62.4508H9.02681V65.3308H0.0748125ZM17.4885 75.2668C16.4165 75.2668 15.4565 75.0588 14.6085 74.6428C13.7765 74.2268 13.1285 73.5948 12.6645 72.7468C12.2005 71.8828 11.9685 70.7868 11.9685 69.4588V62.1628H15.7125V68.9068C15.7125 69.9788 15.9365 70.7708 16.3845 71.2828C16.8485 71.7788 17.4965 72.0268 18.3285 72.0268C18.9045 72.0268 19.4165 71.9068 19.8645 71.6668C20.3125 71.4108 20.6645 71.0268 20.9205 70.5148C21.1765 69.9868 21.3045 69.3308 21.3045 68.5468V62.1628H25.0485V75.0748H21.4965V71.5228L22.1445 72.5548C21.7125 73.4508 21.0725 74.1308 20.2245 74.5948C19.3925 75.0428 18.4805 75.2668 17.4885 75.2668ZM35.3139 75.0748V62.1628H39.0579V75.0748H35.3139ZM37.1859 60.3628C36.4979 60.3628 35.9379 60.1628 35.5059 59.7628C35.0739 59.3628 34.8579 58.8668 34.8579 58.2748C34.8579 57.6828 35.0739 57.1868 35.5059 56.7868C35.9379 56.3868 36.4979 56.1868 37.1859 56.1868C37.8739 56.1868 38.4339 56.3788 38.8659 56.7628C39.2979 57.1308 39.5139 57.6108 39.5139 58.2028C39.5139 58.8268 39.2979 59.3468 38.8659 59.7628C38.4499 60.1628 37.8899 60.3628 37.1859 60.3628ZM50.3807 61.9708C51.4047 61.9708 52.3167 62.1788 53.1167 62.5948C53.9327 62.9948 54.5727 63.6188 55.0367 64.4668C55.5007 65.2988 55.7327 66.3708 55.7327 67.6828V75.0748H51.9887V68.2588C51.9887 67.2188 51.7567 66.4508 51.2927 65.9548C50.8447 65.4588 50.2047 65.2108 49.3727 65.2108C48.7807 65.2108 48.2447 65.3388 47.7647 65.5948C47.3007 65.8348 46.9327 66.2108 46.6607 66.7228C46.4047 67.2348 46.2767 67.8908 46.2767 68.6908V75.0748H42.5327V62.1628H46.1087V65.7388L45.4367 64.6588C45.9007 63.7948 46.5647 63.1308 47.4287 62.6668C48.2927 62.2028 49.2767 61.9708 50.3807 61.9708ZM65.2922 79.9228C64.0762 79.9228 62.9002 79.7708 61.7642 79.4668C60.6442 79.1788 59.7082 78.7388 58.9562 78.1468L60.4442 75.4588C60.9882 75.9068 61.6762 76.2588 62.5082 76.5148C63.3562 76.7868 64.1882 76.9228 65.0042 76.9228C66.3322 76.9228 67.2922 76.6268 67.8842 76.0348C68.4922 75.4428 68.7962 74.5628 68.7962 73.3948V71.4508L69.0362 68.2108L68.9882 64.9468V62.1628H72.5402V72.9148C72.5402 75.3148 71.9162 77.0828 70.6682 78.2188C69.4202 79.3548 67.6282 79.9228 65.2922 79.9228ZM64.7162 74.4508C63.5162 74.4508 62.4282 74.1948 61.4522 73.6828C60.4922 73.1548 59.7162 72.4268 59.1242 71.4988C58.5482 70.5548 58.2602 69.4588 58.2602 68.2108C58.2602 66.9468 58.5482 65.8508 59.1242 64.9228C59.7162 63.9788 60.4922 63.2508 61.4522 62.7388C62.4282 62.2268 63.5162 61.9708 64.7162 61.9708C65.8042 61.9708 66.7642 62.1948 67.5962 62.6428C68.4282 63.0748 69.0762 63.7548 69.5402 64.6828C70.0042 65.5948 70.2362 66.7708 70.2362 68.2108C70.2362 69.6348 70.0042 70.8108 69.5402 71.7388C69.0762 72.6508 68.4282 73.3308 67.5962 73.7788C66.7642 74.2268 65.8042 74.4508 64.7162 74.4508ZM65.4602 71.3788C66.1162 71.3788 66.7002 71.2508 67.2122 70.9948C67.7242 70.7228 68.1242 70.3468 68.4122 69.8668C68.7002 69.3868 68.8442 68.8348 68.8442 68.2108C68.8442 67.5708 68.7002 67.0188 68.4122 66.5548C68.1242 66.0748 67.7242 65.7068 67.2122 65.4508C66.7002 65.1788 66.1162 65.0428 65.4602 65.0428C64.8042 65.0428 64.2202 65.1788 63.7082 65.4508C63.1962 65.7068 62.7882 66.0748 62.4842 66.5548C62.1962 67.0188 62.0522 67.5708 62.0522 68.2108C62.0522 68.8348 62.1962 69.3868 62.4842 69.8668C62.7882 70.3468 63.1962 70.7228 63.7082 70.9948C64.2202 71.2508 64.8042 71.3788 65.4602 71.3788ZM76.0249 75.0748V62.1628H79.6009V65.8108L79.0969 64.7548C79.4809 63.8428 80.0969 63.1548 80.9449 62.6908C81.7929 62.2108 82.8249 61.9708 84.0409 61.9708V65.4268C83.8809 65.4108 83.7369 65.4028 83.6089 65.4028C83.4809 65.3868 83.3449 65.3788 83.2009 65.3788C82.1769 65.3788 81.3449 65.6748 80.7049 66.2668C80.0809 66.8428 79.7689 67.7468 79.7689 68.9788V75.0748H76.0249ZM92.5813 75.2668C91.1093 75.2668 89.8133 74.9788 88.6933 74.4028C87.5893 73.8268 86.7333 73.0428 86.1253 72.0508C85.5173 71.0428 85.2133 69.8988 85.2133 68.6188C85.2133 67.3228 85.5093 66.1788 86.1013 65.1868C86.7093 64.1788 87.5333 63.3948 88.5733 62.8348C89.6133 62.2588 90.7893 61.9708 92.1013 61.9708C93.3653 61.9708 94.5013 62.2428 95.5093 62.7868C96.5333 63.3148 97.3413 64.0828 97.9333 65.0908C98.5253 66.0828 98.8213 67.2748 98.8213 68.6668C98.8213 68.8108 98.8133 68.9788 98.7973 69.1708C98.7813 69.3468 98.7653 69.5148 98.7493 69.6748H88.2613V67.4908H96.7813L95.3413 68.1388C95.3413 67.4668 95.2053 66.8828 94.9333 66.3868C94.6613 65.8908 94.2853 65.5068 93.8053 65.2348C93.3253 64.9468 92.7653 64.8028 92.1253 64.8028C91.4853 64.8028 90.9173 64.9468 90.4213 65.2348C89.9413 65.5068 89.5653 65.8988 89.2933 66.4108C89.0213 66.9068 88.8853 67.4988 88.8853 68.1868V68.7628C88.8853 69.4668 89.0373 70.0908 89.3413 70.6348C89.6613 71.1628 90.1013 71.5708 90.6613 71.8588C91.2373 72.1308 91.9093 72.2668 92.6773 72.2668C93.3653 72.2668 93.9653 72.1628 94.4773 71.9548C95.0053 71.7468 95.4853 71.4348 95.9173 71.0188L97.9093 73.1788C97.3173 73.8508 96.5733 74.3708 95.6773 74.7388C94.7813 75.0908 93.7493 75.2668 92.5813 75.2668ZM105.658 75.2668C104.554 75.2668 103.49 75.1388 102.466 74.8828C101.458 74.6108 100.658 74.2748 100.066 73.8748L101.314 71.1868C101.906 71.5548 102.602 71.8588 103.402 72.0988C104.218 72.3228 105.018 72.4348 105.802 72.4348C106.666 72.4348 107.274 72.3308 107.626 72.1228C107.994 71.9148 108.178 71.6268 108.178 71.2588C108.178 70.9548 108.034 70.7308 107.746 70.5868C107.474 70.4268 107.106 70.3068 106.642 70.2268C106.178 70.1468 105.666 70.0668 105.106 69.9868C104.562 69.9068 104.01 69.8028 103.45 69.6748C102.89 69.5308 102.378 69.3228 101.914 69.0508C101.45 68.7788 101.074 68.4108 100.786 67.9468C100.514 67.4828 100.378 66.8828 100.378 66.1468C100.378 65.3308 100.61 64.6108 101.074 63.9868C101.554 63.3628 102.242 62.8748 103.138 62.5228C104.034 62.1548 105.106 61.9708 106.354 61.9708C107.234 61.9708 108.13 62.0668 109.042 62.2588C109.954 62.4508 110.714 62.7308 111.322 63.0988L110.074 65.7628C109.45 65.3948 108.818 65.1468 108.178 65.0188C107.554 64.8748 106.946 64.8028 106.354 64.8028C105.522 64.8028 104.914 64.9148 104.53 65.1388C104.146 65.3628 103.954 65.6508 103.954 66.0028C103.954 66.3228 104.09 66.5628 104.362 66.7228C104.65 66.8828 105.026 67.0108 105.49 67.1068C105.954 67.2028 106.458 67.2908 107.002 67.3708C107.562 67.4348 108.122 67.5388 108.682 67.6828C109.242 67.8268 109.746 68.0348 110.194 68.3068C110.658 68.5628 111.034 68.9228 111.322 69.3868C111.61 69.8348 111.754 70.4268 111.754 71.1628C111.754 71.9628 111.514 72.6748 111.034 73.2988C110.554 73.9068 109.858 74.3868 108.946 74.7388C108.05 75.0908 106.954 75.2668 105.658 75.2668ZM120.208 75.2668C118.832 75.2668 117.608 74.9788 116.536 74.4028C115.48 73.8268 114.64 73.0428 114.016 72.0508C113.408 71.0428 113.104 69.8988 113.104 68.6188C113.104 67.3228 113.408 66.1788 114.016 65.1868C114.64 64.1788 115.48 63.3948 116.536 62.8348C117.608 62.2588 118.832 61.9708 120.208 61.9708C121.568 61.9708 122.784 62.2588 123.856 62.8348C124.928 63.3948 125.768 64.1708 126.376 65.1628C126.984 66.1548 127.288 67.3068 127.288 68.6188C127.288 69.8988 126.984 71.0428 126.376 72.0508C125.768 73.0428 124.928 73.8268 123.856 74.4028C122.784 74.9788 121.568 75.2668 120.208 75.2668ZM120.208 72.1948C120.832 72.1948 121.392 72.0508 121.888 71.7628C122.384 71.4748 122.776 71.0668 123.064 70.5388C123.352 69.9948 123.496 69.3548 123.496 68.6188C123.496 67.8668 123.352 67.2268 123.064 66.6988C122.776 66.1708 122.384 65.7628 121.888 65.4748C121.392 65.1868 120.832 65.0428 120.208 65.0428C119.584 65.0428 119.024 65.1868 118.528 65.4748C118.032 65.7628 117.632 66.1708 117.328 66.6988C117.04 67.2268 116.896 67.8668 116.896 68.6188C116.896 69.3548 117.04 69.9948 117.328 70.5388C117.632 71.0668 118.032 71.4748 118.528 71.7628C119.024 72.0508 119.584 72.1948 120.208 72.1948ZM130.055 69.2428L129.311 58.2748H133.775L133.031 69.2428H130.055ZM131.543 75.2668C130.871 75.2668 130.319 75.0508 129.887 74.6188C129.455 74.1868 129.239 73.6748 129.239 73.0828C129.239 72.4748 129.455 71.9708 129.887 71.5708C130.319 71.1548 130.871 70.9468 131.543 70.9468C132.231 70.9468 132.783 71.1548 133.199 71.5708C133.631 71.9708 133.847 72.4748 133.847 73.0828C133.847 73.6748 133.631 74.1868 133.199 74.6188C132.783 75.0508 132.231 75.2668 131.543 75.2668Z" fill="#FFFEF5"/>
<path d="M56.8305 50.9228C56.2545 50.9228 55.7025 50.8588 55.1745 50.7308C54.6465 50.6188 54.1985 50.4428 53.8305 50.2028L54.8385 47.4908C55.2705 47.7948 55.7985 47.9468 56.4225 47.9468C56.8865 47.9468 57.2545 47.7868 57.5265 47.4668C57.8145 47.1628 57.9585 46.6988 57.9585 46.0748V33.1628H61.7025V46.0508C61.7025 47.5388 61.2785 48.7228 60.4305 49.6028C59.5825 50.4828 58.3825 50.9228 56.8305 50.9228ZM59.8305 31.3628C59.1425 31.3628 58.5825 31.1628 58.1505 30.7628C57.7185 30.3628 57.5025 29.8668 57.5025 29.2748C57.5025 28.6828 57.7185 28.1868 58.1505 27.7868C58.5825 27.3868 59.1425 27.1868 59.8305 27.1868C60.5185 27.1868 61.0785 27.3788 61.5105 27.7628C61.9425 28.1308 62.1585 28.6108 62.1585 29.2028C62.1585 29.8268 61.9425 30.3468 61.5105 30.7628C61.0945 31.1628 60.5345 31.3628 59.8305 31.3628ZM70.5979 46.2668C69.5259 46.2668 68.5659 46.0588 67.7179 45.6428C66.8859 45.2268 66.2379 44.5948 65.7739 43.7468C65.3099 42.8828 65.0779 41.7868 65.0779 40.4588V33.1628H68.8219V39.9068C68.8219 40.9788 69.0459 41.7708 69.4939 42.2828C69.9579 42.7788 70.6059 43.0268 71.4379 43.0268C72.0139 43.0268 72.5259 42.9068 72.9739 42.6668C73.4219 42.4108 73.7739 42.0268 74.0299 41.5148C74.2859 40.9868 74.4139 40.3308 74.4139 39.5468V33.1628H78.1579V46.0748H74.6059V42.5228L75.2539 43.5548C74.8219 44.4508 74.1819 45.1308 73.3339 45.5948C72.5019 46.0428 71.5899 46.2668 70.5979 46.2668ZM89.4744 32.9708C90.4984 32.9708 91.4104 33.1788 92.2104 33.5948C93.0264 33.9948 93.6664 34.6188 94.1304 35.4668C94.5944 36.2988 94.8264 37.3708 94.8264 38.6828V46.0748H91.0824V39.2588C91.0824 38.2188 90.8504 37.4508 90.3864 36.9548C89.9384 36.4588 89.2984 36.2108 88.4664 36.2108C87.8744 36.2108 87.3384 36.3388 86.8584 36.5948C86.3944 36.8348 86.0264 37.2108 85.7544 37.7228C85.4984 38.2348 85.3704 38.8908 85.3704 39.6908V46.0748H81.6264V33.1628H85.2024V36.7388L84.5304 35.6588C84.9944 34.7948 85.6584 34.1308 86.5224 33.6668C87.3864 33.2028 88.3704 32.9708 89.4744 32.9708ZM103.5 46.2668C101.98 46.2668 100.796 45.8828 99.9482 45.1148C99.1002 44.3308 98.6762 43.1708 98.6762 41.6348V30.3068H102.42V41.5868C102.42 42.1308 102.564 42.5548 102.852 42.8588C103.14 43.1468 103.532 43.2908 104.028 43.2908C104.62 43.2908 105.124 43.1308 105.54 42.8108L106.548 45.4508C106.164 45.7228 105.7 45.9308 105.156 46.0748C104.628 46.2028 104.076 46.2668 103.5 46.2668ZM96.6842 36.3308V33.4508H105.636V36.3308H96.6842ZM114.395 46.2668C113.019 46.2668 111.795 45.9788 110.723 45.4028C109.667 44.8268 108.827 44.0428 108.203 43.0508C107.595 42.0428 107.291 40.8988 107.291 39.6188C107.291 38.3228 107.595 37.1788 108.203 36.1868C108.827 35.1788 109.667 34.3948 110.723 33.8348C111.795 33.2588 113.019 32.9708 114.395 32.9708C115.755 32.9708 116.971 33.2588 118.043 33.8348C119.115 34.3948 119.955 35.1708 120.563 36.1628C121.171 37.1548 121.475 38.3068 121.475 39.6188C121.475 40.8988 121.171 42.0428 120.563 43.0508C119.955 44.0428 119.115 44.8268 118.043 45.4028C116.971 45.9788 115.755 46.2668 114.395 46.2668ZM114.395 43.1948C115.019 43.1948 115.579 43.0508 116.075 42.7628C116.571 42.4748 116.963 42.0668 117.251 41.5388C117.539 40.9948 117.683 40.3548 117.683 39.6188C117.683 38.8668 117.539 38.2268 117.251 37.6988C116.963 37.1708 116.571 36.7628 116.075 36.4748C115.579 36.1868 115.019 36.0428 114.395 36.0428C113.771 36.0428 113.211 36.1868 112.715 36.4748C112.219 36.7628 111.819 37.1708 111.515 37.6988C111.227 38.2268 111.083 38.8668 111.083 39.6188C111.083 40.3548 111.227 40.9948 111.515 41.5388C111.819 42.0668 112.219 42.4748 112.715 42.7628C113.211 43.0508 113.771 43.1948 114.395 43.1948ZM128.322 46.2668C127.218 46.2668 126.154 46.1388 125.13 45.8828C124.122 45.6108 123.322 45.2748 122.73 44.8748L123.978 42.1868C124.57 42.5548 125.266 42.8588 126.066 43.0988C126.882 43.3228 127.682 43.4348 128.466 43.4348C129.33 43.4348 129.938 43.3308 130.29 43.1228C130.658 42.9148 130.842 42.6268 130.842 42.2588C130.842 41.9548 130.698 41.7308 130.41 41.5868C130.138 41.4268 129.77 41.3068 129.306 41.2268C128.842 41.1468 128.33 41.0668 127.77 40.9868C127.226 40.9068 126.674 40.8028 126.114 40.6748C125.554 40.5308 125.042 40.3228 124.578 40.0508C124.114 39.7788 123.738 39.4108 123.45 38.9468C123.178 38.4828 123.042 37.8828 123.042 37.1468C123.042 36.3308 123.274 35.6108 123.738 34.9868C124.218 34.3628 124.906 33.8748 125.802 33.5228C126.698 33.1548 127.77 32.9708 129.018 32.9708C129.898 32.9708 130.794 33.0668 131.706 33.2588C132.618 33.4508 133.378 33.7308 133.986 34.0988L132.738 36.7628C132.114 36.3948 131.482 36.1468 130.842 36.0188C130.218 35.8748 129.61 35.8028 129.018 35.8028C128.186 35.8028 127.578 35.9148 127.194 36.1388C126.81 36.3628 126.618 36.6508 126.618 37.0028C126.618 37.3228 126.754 37.5628 127.026 37.7228C127.314 37.8828 127.69 38.0108 128.154 38.1068C128.618 38.2028 129.122 38.2908 129.666 38.3708C130.226 38.4348 130.786 38.5388 131.346 38.6828C131.906 38.8268 132.41 39.0348 132.858 39.3068C133.322 39.5628 133.698 39.9228 133.986 40.3868C134.274 40.8348 134.418 41.4268 134.418 42.1628C134.418 42.9628 134.178 43.6748 133.698 44.2988C133.218 44.9068 132.522 45.3868 131.61 45.7388C130.714 46.0908 129.618 46.2668 128.322 46.2668Z" fill="#E8262C"/>
</svg>
