<svg width="135" height="80" viewBox="0 0 135 80" fill="none" xmlns="http://www.w3.org/2000/svg">
<path d="M7.05394 9.92L7.79794 20.696H3.33394L4.07794 9.92H7.05394ZM5.56594 3.896C6.25394 3.896 6.80594 4.112 7.22194 4.544C7.65394 4.976 7.86994 5.496 7.86994 6.104C7.86994 6.696 7.65394 7.2 7.22194 7.616C6.80594 8.032 6.25394 8.24 5.56594 8.24C4.89394 8.24 4.34194 8.032 3.90994 7.616C3.47794 7.2 3.26194 6.696 3.26194 6.104C3.26194 5.496 3.47794 4.976 3.90994 4.544C4.34194 4.112 4.89394 3.896 5.56594 3.896ZM11.0154 17V0.199999H14.9034V13.832H23.3274V17H11.0154ZM31.3095 17.192C29.9335 17.192 28.7095 16.904 27.6375 16.328C26.5815 15.752 25.7415 14.968 25.1175 13.976C24.5095 12.968 24.2055 11.824 24.2055 10.544C24.2055 9.248 24.5095 8.104 25.1175 7.112C25.7415 6.104 26.5815 5.32 27.6375 4.76C28.7095 4.184 29.9335 3.896 31.3095 3.896C32.6695 3.896 33.8855 4.184 34.9575 4.76C36.0295 5.32 36.8695 6.096 37.4775 7.088C38.0855 8.08 38.3895 9.232 38.3895 10.544C38.3895 11.824 38.0855 12.968 37.4775 13.976C36.8695 14.968 36.0295 15.752 34.9575 16.328C33.8855 16.904 32.6695 17.192 31.3095 17.192ZM31.3095 14.12C31.9335 14.12 32.4935 13.976 32.9895 13.688C33.4855 13.4 33.8775 12.992 34.1655 12.464C34.4535 11.92 34.5975 11.28 34.5975 10.544C34.5975 9.792 34.4535 9.152 34.1655 8.624C33.8775 8.096 33.4855 7.688 32.9895 7.4C32.4935 7.112 31.9335 6.968 31.3095 6.968C30.6855 6.968 30.1255 7.112 29.6295 7.4C29.1335 7.688 28.7335 8.096 28.4295 8.624C28.1415 9.152 27.9975 9.792 27.9975 10.544C27.9975 11.28 28.1415 11.92 28.4295 12.464C28.7335 12.992 29.1335 13.4 29.6295 13.688C30.1255 13.976 30.6855 14.12 31.3095 14.12ZM46.9641 21.848C45.7481 21.848 44.5721 21.696 43.4361 21.392C42.3161 21.104 41.3801 20.664 40.6281 20.072L42.1161 17.384C42.6601 17.832 43.3481 18.184 44.1801 18.44C45.0281 18.712 45.8601 18.848 46.6761 18.848C48.0041 18.848 48.9641 18.552 49.5561 17.96C50.1641 17.368 50.4681 16.488 50.4681 15.32V13.376L50.7081 10.136L50.6601 6.872V4.088H54.2121V14.84C54.2121 17.24 53.5881 19.008 52.3401 20.144C51.0921 21.28 49.3001 21.848 46.9641 21.848ZM46.3881 16.376C45.1881 16.376 44.1001 16.12 43.1241 15.608C42.1641 15.08 41.3881 14.352 40.7961 13.424C40.2201 12.48 39.9321 11.384 39.9321 10.136C39.9321 8.872 40.2201 7.776 40.7961 6.848C41.3881 5.904 42.1641 5.176 43.1241 4.664C44.1001 4.152 45.1881 3.896 46.3881 3.896C47.4761 3.896 48.4361 4.12 49.2681 4.568C50.1001 5 50.7481 5.68 51.2121 6.608C51.6761 7.52 51.9081 8.696 51.9081 10.136C51.9081 11.56 51.6761 12.736 51.2121 13.664C50.7481 14.576 50.1001 15.256 49.2681 15.704C48.4361 16.152 47.4761 16.376 46.3881 16.376ZM47.1321 13.304C47.7881 13.304 48.3721 13.176 48.8841 12.92C49.3961 12.648 49.7961 12.272 50.0841 11.792C50.3721 11.312 50.5161 10.76 50.5161 10.136C50.5161 9.496 50.3721 8.944 50.0841 8.48C49.7961 8 49.3961 7.632 48.8841 7.376C48.3721 7.104 47.7881 6.968 47.1321 6.968C46.4761 6.968 45.8921 7.104 45.3801 7.376C44.8681 7.632 44.4601 8 44.1561 8.48C43.8681 8.944 43.7241 9.496 43.7241 10.136C43.7241 10.76 43.8681 11.312 44.1561 11.792C44.4601 12.272 44.8681 12.648 45.3801 12.92C45.8921 13.176 46.4761 13.304 47.1321 13.304ZM57.6968 17V4.088H61.2728V7.736L60.7688 6.68C61.1528 5.768 61.7688 5.08 62.6168 4.616C63.4648 4.136 64.4968 3.896 65.7128 3.896V7.352C65.5528 7.336 65.4088 7.328 65.2808 7.328C65.1528 7.312 65.0168 7.304 64.8728 7.304C63.8488 7.304 63.0168 7.6 62.3768 8.192C61.7528 8.768 61.4408 9.672 61.4408 10.904V17H57.6968ZM74.2532 17.192C72.7812 17.192 71.4852 16.904 70.3652 16.328C69.2612 15.752 68.4052 14.968 67.7972 13.976C67.1892 12.968 66.8852 11.824 66.8852 10.544C66.8852 9.248 67.1812 8.104 67.7732 7.112C68.3812 6.104 69.2052 5.32 70.2452 4.76C71.2852 4.184 72.4612 3.896 73.7732 3.896C75.0372 3.896 76.1732 4.168 77.1812 4.712C78.2052 5.24 79.0132 6.008 79.6052 7.016C80.1972 8.008 80.4932 9.2 80.4932 10.592C80.4932 10.736 80.4852 10.904 80.4692 11.096C80.4532 11.272 80.4372 11.44 80.4212 11.6H69.9332V9.416H78.4532L77.0132 10.064C77.0132 9.392 76.8772 8.808 76.6052 8.312C76.3332 7.816 75.9572 7.432 75.4772 7.16C74.9972 6.872 74.4372 6.728 73.7972 6.728C73.1572 6.728 72.5892 6.872 72.0932 7.16C71.6132 7.432 71.2372 7.824 70.9652 8.336C70.6932 8.832 70.5572 9.424 70.5572 10.112V10.688C70.5572 11.392 70.7092 12.016 71.0132 12.56C71.3332 13.088 71.7732 13.496 72.3332 13.784C72.9092 14.056 73.5812 14.192 74.3492 14.192C75.0372 14.192 75.6372 14.088 76.1492 13.88C76.6772 13.672 77.1572 13.36 77.5892 12.944L79.5812 15.104C78.9892 15.776 78.2452 16.296 77.3492 16.664C76.4532 17.016 75.4212 17.192 74.2532 17.192ZM99.5218 3.896C100.546 3.896 101.45 4.104 102.234 4.52C103.034 4.92 103.658 5.544 104.106 6.392C104.57 7.224 104.802 8.296 104.802 9.608V17H101.058V10.184C101.058 9.144 100.842 8.376 100.41 7.88C99.9778 7.384 99.3698 7.136 98.5858 7.136C98.0418 7.136 97.5538 7.264 97.1218 7.52C96.6898 7.76 96.3538 8.128 96.1138 8.624C95.8738 9.12 95.7538 9.752 95.7538 10.52V17H92.0098V10.184C92.0098 9.144 91.7938 8.376 91.3618 7.88C90.9458 7.384 90.3458 7.136 89.5618 7.136C89.0178 7.136 88.5298 7.264 88.0978 7.52C87.6658 7.76 87.3298 8.128 87.0898 8.624C86.8498 9.12 86.7298 9.752 86.7298 10.52V17H82.9858V4.088H86.5618V7.616L85.8898 6.584C86.3378 5.704 86.9698 5.04 87.7858 4.592C88.6178 4.128 89.5618 3.896 90.6178 3.896C91.8018 3.896 92.8338 4.2 93.7138 4.808C94.6098 5.4 95.2018 6.312 95.4898 7.544L94.1698 7.184C94.6018 6.176 95.2898 5.376 96.2338 4.784C97.1938 4.192 98.2898 3.896 99.5218 3.896ZM114.395 17.192C113.019 17.192 111.795 16.904 110.723 16.328C109.667 15.752 108.827 14.968 108.203 13.976C107.595 12.968 107.291 11.824 107.291 10.544C107.291 9.248 107.595 8.104 108.203 7.112C108.827 6.104 109.667 5.32 110.723 4.76C111.795 4.184 113.019 3.896 114.395 3.896C115.755 3.896 116.971 4.184 118.043 4.76C119.115 5.32 119.955 6.096 120.563 7.088C121.171 8.08 121.475 9.232 121.475 10.544C121.475 11.824 121.171 12.968 120.563 13.976C119.955 14.968 119.115 15.752 118.043 16.328C116.971 16.904 115.755 17.192 114.395 17.192ZM114.395 14.12C115.019 14.12 115.579 13.976 116.075 13.688C116.571 13.4 116.963 12.992 117.251 12.464C117.539 11.92 117.683 11.28 117.683 10.544C117.683 9.792 117.539 9.152 117.251 8.624C116.963 8.096 116.571 7.688 116.075 7.4C115.579 7.112 115.019 6.968 114.395 6.968C113.771 6.968 113.211 7.112 112.715 7.4C112.219 7.688 111.819 8.096 111.515 8.624C111.227 9.152 111.083 9.792 111.083 10.544C111.083 11.28 111.227 11.92 111.515 12.464C111.819 12.992 112.219 13.4 112.715 13.688C113.211 13.976 113.771 14.12 114.395 14.12ZM128.322 17.192C127.218 17.192 126.154 17.064 125.13 16.808C124.122 16.536 123.322 16.2 122.73 15.8L123.978 13.112C124.57 13.48 125.266 13.784 126.066 14.024C126.882 14.248 127.682 14.36 128.466 14.36C129.33 14.36 129.938 14.256 130.29 14.048C130.658 13.84 130.842 13.552 130.842 13.184C130.842 12.88 130.698 12.656 130.41 12.512C130.138 12.352 129.77 12.232 129.306 12.152C128.842 12.072 128.33 11.992 127.77 11.912C127.226 11.832 126.674 11.728 126.114 11.6C125.554 11.456 125.042 11.248 124.578 10.976C124.114 10.704 123.738 10.336 123.45 9.872C123.178 9.408 123.042 8.808 123.042 8.072C123.042 7.256 123.274 6.536 123.738 5.912C124.218 5.288 124.906 4.8 125.802 4.448C126.698 4.08 127.77 3.896 129.018 3.896C129.898 3.896 130.794 3.992 131.706 4.184C132.618 4.376 133.378 4.656 133.986 5.024L132.738 7.688C132.114 7.32 131.482 7.072 130.842 6.944C130.218 6.8 129.61 6.728 129.018 6.728C128.186 6.728 127.578 6.84 127.194 7.064C126.81 7.288 126.618 7.576 126.618 7.928C126.618 8.248 126.754 8.488 127.026 8.648C127.314 8.808 127.69 8.936 128.154 9.032C128.618 9.128 129.122 9.216 129.666 9.296C130.226 9.36 130.786 9.464 131.346 9.608C131.906 9.752 132.41 9.96 132.858 10.232C133.322 10.488 133.698 10.848 133.986 11.312C134.274 11.76 134.418 12.352 134.418 13.088C134.418 13.888 134.178 14.6 133.698 15.224C133.218 15.832 132.522 16.312 131.61 16.664C130.714 17.016 129.618 17.192 128.322 17.192ZM6.89081 75.192C5.37081 75.192 4.18681 74.808 3.33881 74.04C2.49081 73.256 2.06681 72.096 2.06681 70.56V59.232H5.81081V70.512C5.81081 71.056 5.95481 71.48 6.24281 71.784C6.53081 72.072 6.92281 72.216 7.41881 72.216C8.01081 72.216 8.51481 72.056 8.93081 71.736L9.93881 74.376C9.55481 74.648 9.09081 74.856 8.54681 75C8.01881 75.128 7.46681 75.192 6.89081 75.192ZM0.0748125 65.256V62.376H9.02681V65.256H0.0748125ZM17.4885 75.192C16.4165 75.192 15.4565 74.984 14.6085 74.568C13.7765 74.152 13.1285 73.52 12.6645 72.672C12.2005 71.808 11.9685 70.712 11.9685 69.384V62.088H15.7125V68.832C15.7125 69.904 15.9365 70.696 16.3845 71.208C16.8485 71.704 17.4965 71.952 18.3285 71.952C18.9045 71.952 19.4165 71.832 19.8645 71.592C20.3125 71.336 20.6645 70.952 20.9205 70.44C21.1765 69.912 21.3045 69.256 21.3045 68.472V62.088H25.0485V75H21.4965V71.448L22.1445 72.48C21.7125 73.376 21.0725 74.056 20.2245 74.52C19.3925 74.968 18.4805 75.192 17.4885 75.192ZM35.3139 75V62.088H39.0579V75H35.3139ZM37.1859 60.288C36.4979 60.288 35.9379 60.088 35.5059 59.688C35.0739 59.288 34.8579 58.792 34.8579 58.2C34.8579 57.608 35.0739 57.112 35.5059 56.712C35.9379 56.312 36.4979 56.112 37.1859 56.112C37.8739 56.112 38.4339 56.304 38.8659 56.688C39.2979 57.056 39.5139 57.536 39.5139 58.128C39.5139 58.752 39.2979 59.272 38.8659 59.688C38.4499 60.088 37.8899 60.288 37.1859 60.288ZM50.3807 61.896C51.4047 61.896 52.3167 62.104 53.1167 62.52C53.9327 62.92 54.5727 63.544 55.0367 64.392C55.5007 65.224 55.7327 66.296 55.7327 67.608V75H51.9887V68.184C51.9887 67.144 51.7567 66.376 51.2927 65.88C50.8447 65.384 50.2047 65.136 49.3727 65.136C48.7807 65.136 48.2447 65.264 47.7647 65.52C47.3007 65.76 46.9327 66.136 46.6607 66.648C46.4047 67.16 46.2767 67.816 46.2767 68.616V75H42.5327V62.088H46.1087V65.664L45.4367 64.584C45.9007 63.72 46.5647 63.056 47.4287 62.592C48.2927 62.128 49.2767 61.896 50.3807 61.896ZM65.2922 79.848C64.0762 79.848 62.9002 79.696 61.7642 79.392C60.6442 79.104 59.7082 78.664 58.9562 78.072L60.4442 75.384C60.9882 75.832 61.6762 76.184 62.5082 76.44C63.3562 76.712 64.1882 76.848 65.0042 76.848C66.3322 76.848 67.2922 76.552 67.8842 75.96C68.4922 75.368 68.7962 74.488 68.7962 73.32V71.376L69.0362 68.136L68.9882 64.872V62.088H72.5402V72.84C72.5402 75.24 71.9162 77.008 70.6682 78.144C69.4202 79.28 67.6282 79.848 65.2922 79.848ZM64.7162 74.376C63.5162 74.376 62.4282 74.12 61.4522 73.608C60.4922 73.08 59.7162 72.352 59.1242 71.424C58.5482 70.48 58.2602 69.384 58.2602 68.136C58.2602 66.872 58.5482 65.776 59.1242 64.848C59.7162 63.904 60.4922 63.176 61.4522 62.664C62.4282 62.152 63.5162 61.896 64.7162 61.896C65.8042 61.896 66.7642 62.12 67.5962 62.568C68.4282 63 69.0762 63.68 69.5402 64.608C70.0042 65.52 70.2362 66.696 70.2362 68.136C70.2362 69.56 70.0042 70.736 69.5402 71.664C69.0762 72.576 68.4282 73.256 67.5962 73.704C66.7642 74.152 65.8042 74.376 64.7162 74.376ZM65.4602 71.304C66.1162 71.304 66.7002 71.176 67.2122 70.92C67.7242 70.648 68.1242 70.272 68.4122 69.792C68.7002 69.312 68.8442 68.76 68.8442 68.136C68.8442 67.496 68.7002 66.944 68.4122 66.48C68.1242 66 67.7242 65.632 67.2122 65.376C66.7002 65.104 66.1162 64.968 65.4602 64.968C64.8042 64.968 64.2202 65.104 63.7082 65.376C63.1962 65.632 62.7882 66 62.4842 66.48C62.1962 66.944 62.0522 67.496 62.0522 68.136C62.0522 68.76 62.1962 69.312 62.4842 69.792C62.7882 70.272 63.1962 70.648 63.7082 70.92C64.2202 71.176 64.8042 71.304 65.4602 71.304ZM76.0249 75V62.088H79.6009V65.736L79.0969 64.68C79.4809 63.768 80.0969 63.08 80.9449 62.616C81.7929 62.136 82.8249 61.896 84.0409 61.896V65.352C83.8809 65.336 83.7369 65.328 83.6089 65.328C83.4809 65.312 83.3449 65.304 83.2009 65.304C82.1769 65.304 81.3449 65.6 80.7049 66.192C80.0809 66.768 79.7689 67.672 79.7689 68.904V75H76.0249ZM92.5813 75.192C91.1093 75.192 89.8133 74.904 88.6933 74.328C87.5893 73.752 86.7333 72.968 86.1253 71.976C85.5173 70.968 85.2133 69.824 85.2133 68.544C85.2133 67.248 85.5093 66.104 86.1013 65.112C86.7093 64.104 87.5333 63.32 88.5733 62.76C89.6133 62.184 90.7893 61.896 92.1013 61.896C93.3653 61.896 94.5013 62.168 95.5093 62.712C96.5333 63.24 97.3413 64.008 97.9333 65.016C98.5253 66.008 98.8213 67.2 98.8213 68.592C98.8213 68.736 98.8133 68.904 98.7973 69.096C98.7813 69.272 98.7653 69.44 98.7493 69.6H88.2613V67.416H96.7813L95.3413 68.064C95.3413 67.392 95.2053 66.808 94.9333 66.312C94.6613 65.816 94.2853 65.432 93.8053 65.16C93.3253 64.872 92.7653 64.728 92.1253 64.728C91.4853 64.728 90.9173 64.872 90.4213 65.16C89.9413 65.432 89.5653 65.824 89.2933 66.336C89.0213 66.832 88.8853 67.424 88.8853 68.112V68.688C88.8853 69.392 89.0373 70.016 89.3413 70.56C89.6613 71.088 90.1013 71.496 90.6613 71.784C91.2373 72.056 91.9093 72.192 92.6773 72.192C93.3653 72.192 93.9653 72.088 94.4773 71.88C95.0053 71.672 95.4853 71.36 95.9173 70.944L97.9093 73.104C97.3173 73.776 96.5733 74.296 95.6773 74.664C94.7813 75.016 93.7493 75.192 92.5813 75.192ZM105.658 75.192C104.554 75.192 103.49 75.064 102.466 74.808C101.458 74.536 100.658 74.2 100.066 73.8L101.314 71.112C101.906 71.48 102.602 71.784 103.402 72.024C104.218 72.248 105.018 72.36 105.802 72.36C106.666 72.36 107.274 72.256 107.626 72.048C107.994 71.84 108.178 71.552 108.178 71.184C108.178 70.88 108.034 70.656 107.746 70.512C107.474 70.352 107.106 70.232 106.642 70.152C106.178 70.072 105.666 69.992 105.106 69.912C104.562 69.832 104.01 69.728 103.45 69.6C102.89 69.456 102.378 69.248 101.914 68.976C101.45 68.704 101.074 68.336 100.786 67.872C100.514 67.408 100.378 66.808 100.378 66.072C100.378 65.256 100.61 64.536 101.074 63.912C101.554 63.288 102.242 62.8 103.138 62.448C104.034 62.08 105.106 61.896 106.354 61.896C107.234 61.896 108.13 61.992 109.042 62.184C109.954 62.376 110.714 62.656 111.322 63.024L110.074 65.688C109.45 65.32 108.818 65.072 108.178 64.944C107.554 64.8 106.946 64.728 106.354 64.728C105.522 64.728 104.914 64.84 104.53 65.064C104.146 65.288 103.954 65.576 103.954 65.928C103.954 66.248 104.09 66.488 104.362 66.648C104.65 66.808 105.026 66.936 105.49 67.032C105.954 67.128 106.458 67.216 107.002 67.296C107.562 67.36 108.122 67.464 108.682 67.608C109.242 67.752 109.746 67.96 110.194 68.232C110.658 68.488 111.034 68.848 111.322 69.312C111.61 69.76 111.754 70.352 111.754 71.088C111.754 71.888 111.514 72.6 111.034 73.224C110.554 73.832 109.858 74.312 108.946 74.664C108.05 75.016 106.954 75.192 105.658 75.192ZM120.208 75.192C118.832 75.192 117.608 74.904 116.536 74.328C115.48 73.752 114.64 72.968 114.016 71.976C113.408 70.968 113.104 69.824 113.104 68.544C113.104 67.248 113.408 66.104 114.016 65.112C114.64 64.104 115.48 63.32 116.536 62.76C117.608 62.184 118.832 61.896 120.208 61.896C121.568 61.896 122.784 62.184 123.856 62.76C124.928 63.32 125.768 64.096 126.376 65.088C126.984 66.08 127.288 67.232 127.288 68.544C127.288 69.824 126.984 70.968 126.376 71.976C125.768 72.968 124.928 73.752 123.856 74.328C122.784 74.904 121.568 75.192 120.208 75.192ZM120.208 72.12C120.832 72.12 121.392 71.976 121.888 71.688C122.384 71.4 122.776 70.992 123.064 70.464C123.352 69.92 123.496 69.28 123.496 68.544C123.496 67.792 123.352 67.152 123.064 66.624C122.776 66.096 122.384 65.688 121.888 65.4C121.392 65.112 120.832 64.968 120.208 64.968C119.584 64.968 119.024 65.112 118.528 65.4C118.032 65.688 117.632 66.096 117.328 66.624C117.04 67.152 116.896 67.792 116.896 68.544C116.896 69.28 117.04 69.92 117.328 70.464C117.632 70.992 118.032 71.4 118.528 71.688C119.024 71.976 119.584 72.12 120.208 72.12ZM130.055 69.168L129.311 58.2H133.775L133.031 69.168H130.055ZM131.543 75.192C130.871 75.192 130.319 74.976 129.887 74.544C129.455 74.112 129.239 73.6 129.239 73.008C129.239 72.4 129.455 71.896 129.887 71.496C130.319 71.08 130.871 70.872 131.543 70.872C132.231 70.872 132.783 71.08 133.199 71.496C133.631 71.896 133.847 72.4 133.847 73.008C133.847 73.6 133.631 74.112 133.199 74.544C132.783 74.976 132.231 75.192 131.543 75.192Z" fill="#7D6B35"/>
<path d="M56.8305 50.848C56.2545 50.848 55.7025 50.784 55.1745 50.656C54.6465 50.544 54.1985 50.368 53.8305 50.128L54.8385 47.416C55.2705 47.72 55.7985 47.872 56.4225 47.872C56.8865 47.872 57.2545 47.712 57.5265 47.392C57.8145 47.088 57.9585 46.624 57.9585 46V33.088H61.7025V45.976C61.7025 47.464 61.2785 48.648 60.4305 49.528C59.5825 50.408 58.3825 50.848 56.8305 50.848ZM59.8305 31.288C59.1425 31.288 58.5825 31.088 58.1505 30.688C57.7185 30.288 57.5025 29.792 57.5025 29.2C57.5025 28.608 57.7185 28.112 58.1505 27.712C58.5825 27.312 59.1425 27.112 59.8305 27.112C60.5185 27.112 61.0785 27.304 61.5105 27.688C61.9425 28.056 62.1585 28.536 62.1585 29.128C62.1585 29.752 61.9425 30.272 61.5105 30.688C61.0945 31.088 60.5345 31.288 59.8305 31.288ZM70.5979 46.192C69.5259 46.192 68.5659 45.984 67.7179 45.568C66.8859 45.152 66.2379 44.52 65.7739 43.672C65.3099 42.808 65.0779 41.712 65.0779 40.384V33.088H68.8219V39.832C68.8219 40.904 69.0459 41.696 69.4939 42.208C69.9579 42.704 70.6059 42.952 71.4379 42.952C72.0139 42.952 72.5259 42.832 72.9739 42.592C73.4219 42.336 73.7739 41.952 74.0299 41.44C74.2859 40.912 74.4139 40.256 74.4139 39.472V33.088H78.1579V46H74.6059V42.448L75.2539 43.48C74.8219 44.376 74.1819 45.056 73.3339 45.52C72.5019 45.968 71.5899 46.192 70.5979 46.192ZM89.4744 32.896C90.4984 32.896 91.4104 33.104 92.2104 33.52C93.0264 33.92 93.6664 34.544 94.1304 35.392C94.5944 36.224 94.8264 37.296 94.8264 38.608V46H91.0824V39.184C91.0824 38.144 90.8504 37.376 90.3864 36.88C89.9384 36.384 89.2984 36.136 88.4664 36.136C87.8744 36.136 87.3384 36.264 86.8584 36.52C86.3944 36.76 86.0264 37.136 85.7544 37.648C85.4984 38.16 85.3704 38.816 85.3704 39.616V46H81.6264V33.088H85.2024V36.664L84.5304 35.584C84.9944 34.72 85.6584 34.056 86.5224 33.592C87.3864 33.128 88.3704 32.896 89.4744 32.896ZM103.5 46.192C101.98 46.192 100.796 45.808 99.9482 45.04C99.1002 44.256 98.6762 43.096 98.6762 41.56V30.232H102.42V41.512C102.42 42.056 102.564 42.48 102.852 42.784C103.14 43.072 103.532 43.216 104.028 43.216C104.62 43.216 105.124 43.056 105.54 42.736L106.548 45.376C106.164 45.648 105.7 45.856 105.156 46C104.628 46.128 104.076 46.192 103.5 46.192ZM96.6842 36.256V33.376H105.636V36.256H96.6842ZM114.395 46.192C113.019 46.192 111.795 45.904 110.723 45.328C109.667 44.752 108.827 43.968 108.203 42.976C107.595 41.968 107.291 40.824 107.291 39.544C107.291 38.248 107.595 37.104 108.203 36.112C108.827 35.104 109.667 34.32 110.723 33.76C111.795 33.184 113.019 32.896 114.395 32.896C115.755 32.896 116.971 33.184 118.043 33.76C119.115 34.32 119.955 35.096 120.563 36.088C121.171 37.08 121.475 38.232 121.475 39.544C121.475 40.824 121.171 41.968 120.563 42.976C119.955 43.968 119.115 44.752 118.043 45.328C116.971 45.904 115.755 46.192 114.395 46.192ZM114.395 43.12C115.019 43.12 115.579 42.976 116.075 42.688C116.571 42.4 116.963 41.992 117.251 41.464C117.539 40.92 117.683 40.28 117.683 39.544C117.683 38.792 117.539 38.152 117.251 37.624C116.963 37.096 116.571 36.688 116.075 36.4C115.579 36.112 115.019 35.968 114.395 35.968C113.771 35.968 113.211 36.112 112.715 36.4C112.219 36.688 111.819 37.096 111.515 37.624C111.227 38.152 111.083 38.792 111.083 39.544C111.083 40.28 111.227 40.92 111.515 41.464C111.819 41.992 112.219 42.4 112.715 42.688C113.211 42.976 113.771 43.12 114.395 43.12ZM128.322 46.192C127.218 46.192 126.154 46.064 125.13 45.808C124.122 45.536 123.322 45.2 122.73 44.8L123.978 42.112C124.57 42.48 125.266 42.784 126.066 43.024C126.882 43.248 127.682 43.36 128.466 43.36C129.33 43.36 129.938 43.256 130.29 43.048C130.658 42.84 130.842 42.552 130.842 42.184C130.842 41.88 130.698 41.656 130.41 41.512C130.138 41.352 129.77 41.232 129.306 41.152C128.842 41.072 128.33 40.992 127.77 40.912C127.226 40.832 126.674 40.728 126.114 40.6C125.554 40.456 125.042 40.248 124.578 39.976C124.114 39.704 123.738 39.336 123.45 38.872C123.178 38.408 123.042 37.808 123.042 37.072C123.042 36.256 123.274 35.536 123.738 34.912C124.218 34.288 124.906 33.8 125.802 33.448C126.698 33.08 127.77 32.896 129.018 32.896C129.898 32.896 130.794 32.992 131.706 33.184C132.618 33.376 133.378 33.656 133.986 34.024L132.738 36.688C132.114 36.32 131.482 36.072 130.842 35.944C130.218 35.8 129.61 35.728 129.018 35.728C128.186 35.728 127.578 35.84 127.194 36.064C126.81 36.288 126.618 36.576 126.618 36.928C126.618 37.248 126.754 37.488 127.026 37.648C127.314 37.808 127.69 37.936 128.154 38.032C128.618 38.128 129.122 38.216 129.666 38.296C130.226 38.36 130.786 38.464 131.346 38.608C131.906 38.752 132.41 38.96 132.858 39.232C133.322 39.488 133.698 39.848 133.986 40.312C134.274 40.76 134.418 41.352 134.418 42.088C134.418 42.888 134.178 43.6 133.698 44.224C133.218 44.832 132.522 45.312 131.61 45.664C130.714 46.016 129.618 46.192 128.322 46.192Z" fill="#E8262C"/>
</svg>
