<?xml version="1.0" encoding="UTF-8"?>
<svg id="Layer_2" data-name="Layer 2" xmlns="http://www.w3.org/2000/svg" viewBox="0 0 199.89 201.43">
  <defs>
    <style>
      .cls-1 {
        fill: #fff;
      }

      .cls-2 {
        fill: #e30613;
      }

      .cls-3 {
        fill: #1d1d1b;
      }
    </style>
  </defs>
  <g id="Capa_1" data-name="Capa 1">
    <polygon class="cls-3" points="132.84 192.39 107.94 190.4 108.52 169.42 100.42 165.37 83.5 184.42 57.02 164.12 62.93 155.61 53.99 146.2 28.76 149.5 20.01 127.88 41.44 117.59 40.29 109.19 14.55 102.44 14.55 82.92 40.35 84.1 40.87 75.9 22.23 56.25 38.77 32.84 57.41 51.48 65.31 44.91 49.81 23.43 79.57 6.25 97.9 30.55 110.22 26.89 103.03 0 140.28 0 140.28 29.28 148.17 29.28 170.31 10.97 190.52 29.83 187.73 32.81 170.15 16.4 149.64 33.36 136.2 33.36 136.2 4.08 108.34 4.08 115.19 29.67 96.35 35.27 78.48 11.59 55.77 24.71 70.85 45.61 57.15 57 39.31 39.15 27.5 55.87 45.06 74.39 44.17 88.36 18.63 87.2 18.63 99.29 43.96 105.93 45.89 119.98 25.23 129.9 31.36 145.04 55.52 141.88 68.18 155.2 62.59 163.25 82.97 178.87 99.45 160.32 112.67 166.93 112.13 186.64 129.32 188.01 132.82 162.54 148.35 163.25 155.08 180.39 179.84 174.82 179.84 144.56 183.92 144.56 183.92 178.08 152.55 185.14 145.52 167.21 136.36 166.79 132.84 192.39"/>
    <polygon class="cls-3" points="95.17 33.49 88.19 9.99 108.17 9.47 108.27 13.55 93.62 13.93 99.08 32.33 95.17 33.49"/>
    <rect class="cls-3" x="36.81" y="27.99" width="18.2" height="4.08" transform="translate(-8.45 37.42) rotate(-40.93)"/>
    <polygon class="cls-3" points="27.67 87.01 8.36 65.77 23.25 42.64 31.03 46.95 29.05 50.52 24.61 48.06 13.49 65.34 30.69 84.26 27.67 87.01"/>
    <polygon class="cls-3" points="31.4 125.65 27.31 125.65 27.31 118.21 0 111.1 0 92.05 16.59 92.05 16.59 96.13 4.08 96.13 4.08 107.94 31.4 115.05 31.4 125.65"/>
    <polygon class="cls-3" points="69.53 192.89 41.93 175.26 49.65 164.94 40.43 156.18 15.47 161.62 3.52 137.71 23.14 130.09 24.62 133.9 9.17 139.89 17.7 156.96 41.67 151.73 55.09 164.48 47.83 174.18 68.69 187.51 77.38 177.05 80.52 179.66 69.53 192.89"/>
    <polygon class="cls-3" points="119.87 201.43 92.77 201.43 92.77 179.02 89.07 174.63 92.19 172 96.85 177.53 96.85 197.35 115.92 197.35 116.21 189.11 120.29 189.25 119.87 201.43"/>
    <polygon class="cls-3" points="139.14 195.31 130.87 179.52 134.49 177.63 141.27 190.57 166.86 184.15 167.07 179.24 171.15 179.41 170.8 187.37 139.14 195.31"/>
    <path class="cls-3" d="m82.04,136.84c-13.57-3.08-22.29-9.39-25.91-18.75-7.51-19.4,9.79-44.56,10.53-45.62l3.35,2.33c-.17.24-16.8,24.45-10.07,41.82,3.1,8.01,10.84,13.47,23.01,16.23l-.9,3.98Z"/>
    <g>
      <polygon class="cls-2" points="105.69 31.32 92.36 55.36 92.36 73.74 112.98 73.74 112.98 121.77 105.69 121.77 92.36 131.27 92.36 147.27 174.44 147.27 197.17 138.8 197.17 121.77 164.62 121.77 164.62 68.97 189.12 48.35 189.12 31.32 105.69 31.32"/>
      <path class="cls-2" d="m174.93,149.99h-85.3v-20.12l15.18-10.82h5.45v-42.59h-20.63v-21.81l14.45-26.06h87.76v21.02l-24.5,20.62v48.81h32.55v21.64l-24.96,9.3Zm-79.85-5.44h78.87l20.5-7.63v-12.42h-32.55v-56.79l24.5-20.62v-13.04h-79.11l-12.21,22.03v14.96h20.63v53.47h-9.15l-11.48,8.18v11.87Z"/>
    </g>
    <g>
      <polygon class="cls-1" points="197.17 121.77 197.17 138.8 105.69 138.8 105.69 121.77 131.78 121.77 131.78 48.35 105.69 48.35 105.69 31.32 189.12 31.32 189.12 48.35 164.62 48.35 164.62 121.77 197.17 121.77"/>
      <path class="cls-2" d="m199.89,141.52h-96.93v-22.47h26.1V51.07h-26.1v-22.47h88.88v22.47h-24.5v67.98h32.55v22.47Zm-91.49-5.44h86.04v-11.58h-32.55V45.62h24.5v-11.58h-77.99v11.58h26.1v78.87h-26.1v11.58Z"/>
    </g>
  </g>
</svg>